# xmcd
#
# Track frame offsets: 
#        150
#        32610
#        55750
#        81252
#        103095
#        125050
#        145912
#        165905
#        190972
#        213330
#
# Disc length: 3168 seconds
#
# Revision: 1
# Processed by: cddbd v1.5.2PL0 Copyright (c) Steve Scherf et al.
# Submitted via: ExactAudioCopy v0.99pb5
#
DISCID=870c5e0a
DTITLE=Cruz Control - Cruz Control
DYEAR=1997
DGENRE=Salsa
TTITLE0=Borinquen la Flor
TTITLE1=Sopa de Bacalao
TTITLE2=Matilde
TTITLE3=Nuestro Querer
TTITLE4=Se va el Manguero
TTITLE5=Bolero Medley
TTITLE6=Esa Mujer
TTITLE7=Cuando te Vea
TTITLE8=Mambo With Me
TTITLE9=Anthropology
EXTD=YEAR: 1997
EXTT0=
EXTT1=
EXTT2=
EXTT3=
EXTT4=
EXTT5=
EXTT6=
EXTT7=
EXTT8=
EXTT9=
PLAYORDER=
